<?xml version="1.0" encoding="utf-8"?>
<svg viewBox="0 0 500 500" width="500" height="500" xmlns="http://www.w3.org/2000/svg">
  <path style="fill: rgb(41, 47, 51);" d="M 491.667 314.504 C 491.667 344.034 467.726 367.974 438.197 367.974 L 63.906 367.974 C 34.377 367.974 10.436 344.032 10.436 314.504 L 10.436 180.829 C 10.436 151.3 34.377 127.359 63.906 127.359 L 438.197 127.359 C 467.726 127.359 491.667 151.3 491.667 180.829 L 491.667 314.504 L 491.667 314.504 Z" transform="matrix(1, 0, 0, 1, 0, 1.4210854715202004e-14)"/>
  <path style="fill: rgba(119, 178, 85, 0.26);" d="M 157.479 247.666 C 157.479 277.196 133.538 301.137 104.009 301.137 C 74.48 301.137 50.538 277.196 50.538 247.666 C 50.538 218.136 74.479 194.196 104.008 194.196 C 133.537 194.196 157.479 218.136 157.479 247.666" transform="matrix(1, 0, 0, 1, 0, 1.4210854715202004e-14)"/>
  <path style="fill: rgb(255, 205, 77);" d="M 304.522 247.666 C 304.522 277.196 280.579 301.137 251.051 301.137 C 221.523 301.137 197.581 277.194 197.581 247.666 C 197.581 218.138 221.523 194.196 251.051 194.196 C 280.579 194.196 304.522 218.136 304.522 247.666" transform="matrix(1, 0, 0, 1, 0, 1.4210854715202004e-14)"/>
  <path style="fill: rgba(221, 46, 69, 0.247);" d="M 451.565 247.666 C 451.565 277.196 427.623 301.137 398.095 301.137 C 368.567 301.137 344.624 277.194 344.624 247.666 C 344.624 218.138 368.567 194.196 398.095 194.196 C 427.623 194.196 451.565 218.136 451.565 247.666" transform="matrix(1, 0, 0, 1, 0, 1.4210854715202004e-14)"/>
  <g transform="matrix(0.9399040341377259, 0, 0, 0.9399040341377259, 10.43591594696045, 7.0512819290161275)" style=""/>
  <g transform="matrix(0.9399040341377259, 0, 0, 0.9399040341377259, 10.43591594696045, 7.0512819290161275)" style=""/>
  <g transform="matrix(0.9399040341377259, 0, 0, 0.9399040341377259, 10.43591594696045, 7.0512819290161275)" style=""/>
  <g transform="matrix(0.9399040341377259, 0, 0, 0.9399040341377259, 10.43591594696045, 7.0512819290161275)" style=""/>
  <g transform="matrix(0.9399040341377259, 0, 0, 0.9399040341377259, 10.43591594696045, 7.0512819290161275)" style=""/>
  <g transform="matrix(0.9399040341377259, 0, 0, 0.9399040341377259, 10.43591594696045, 7.0512819290161275)" style=""/>
  <g transform="matrix(0.9399040341377259, 0, 0, 0.9399040341377259, 10.43591594696045, 7.0512819290161275)" style=""/>
  <g transform="matrix(0.9399040341377259, 0, 0, 0.9399040341377259, 10.43591594696045, 7.0512819290161275)" style=""/>
  <g transform="matrix(0.9399040341377259, 0, 0, 0.9399040341377259, 10.43591594696045, 7.0512819290161275)" style=""/>
  <g transform="matrix(0.9399040341377259, 0, 0, 0.9399040341377259, 10.43591594696045, 7.0512819290161275)" style=""/>
  <g transform="matrix(0.9399040341377259, 0, 0, 0.9399040341377259, 10.43591594696045, 7.0512819290161275)" style=""/>
  <g transform="matrix(0.9399040341377259, 0, 0, 0.9399040341377259, 10.43591594696045, 7.0512819290161275)" style=""/>
  <g transform="matrix(0.9399040341377259, 0, 0, 0.9399040341377259, 10.43591594696045, 7.0512819290161275)" style=""/>
  <g transform="matrix(0.9399040341377259, 0, 0, 0.9399040341377259, 10.43591594696045, 7.0512819290161275)" style=""/>
  <g transform="matrix(0.9399040341377259, 0, 0, 0.9399040341377259, 10.43591594696045, 7.0512819290161275)" style=""/>
</svg>